<svg xmlns="http://www.w3.org/2000/svg" xmlns:xlink="http://www.w3.org/1999/xlink" width="1125" viewBox="0 0 1125 1125" height="1125" version="1.0"><defs><g id="b"><path d="M 73.304688 0 L 44.117188 -40.246094 L 70.429688 -77.394531 L 50.96875 -77.394531 L 25.539062 -41.574219 L 25.539062 -77.394531 L 8.84375 -77.394531 L 8.84375 0 L 25.539062 0 L 25.539062 -37.703125 L 52.851562 0 Z M 73.304688 0"/></g><g id="c"><path d="M 8.84375 0 L 25.539062 0 L 25.539062 -77.394531 L 8.84375 -77.394531 Z M 8.84375 0"/></g><g id="d"><path d="M 34.496094 1.546875 C 50.527344 1.546875 63.796875 -6.523438 63.796875 -23.21875 C 63.796875 -40.578125 48.980469 -44.226562 37.261719 -47.210938 C 28.96875 -49.203125 22.335938 -50.859375 22.335938 -56.277344 C 22.335938 -61.363281 27.75 -63.683594 33.167969 -63.683594 C 39.472656 -63.683594 45 -60.589844 45 -53.84375 L 61.472656 -53.84375 C 61.472656 -69.324219 51.414062 -78.832031 33.613281 -78.832031 C 16.472656 -78.832031 5.527344 -70.429688 5.527344 -55.613281 C 5.527344 -38.917969 19.679688 -35.492188 31.402344 -32.617188 C 39.804688 -30.738281 46.878906 -29.078125 46.878906 -22.996094 C 46.878906 -17.25 40.6875 -13.929688 34.386719 -13.929688 C 27.53125 -13.929688 21.339844 -17.578125 21.339844 -24.988281 L 4.421875 -24.988281 C 4.421875 -8.402344 16.695312 1.546875 34.496094 1.546875 Z M 34.496094 1.546875"/></g><g id="e"><path d="M 54.730469 -77.394531 L 54.730469 -47.542969 L 25.539062 -47.542969 L 25.539062 -77.394531 L 8.84375 -77.394531 L 8.84375 0 L 25.539062 0 L 25.539062 -31.953125 L 54.730469 -31.953125 L 54.730469 0 L 71.425781 0 L 71.425781 -77.394531 Z M 54.730469 -77.394531"/></g><g id="f"><path d="M 60.148438 0 L 78.390625 0 L 47.101562 -77.394531 L 31.289062 -77.394531 L 0.882812 0 L 18.683594 0 L 23.992188 -14.59375 L 54.730469 -14.59375 Z M 39.359375 -56.941406 L 49.53125 -29.1875 L 29.1875 -29.1875 Z M 39.359375 -56.941406"/></g><g id="g"><path d="M 57.824219 -77.394531 L 57.824219 -30.183594 L 23.882812 -77.394531 L 8.84375 -77.394531 L 8.84375 0 L 25.207031 0 L 25.207031 -48.316406 L 60.257812 0 L 74.300781 0 L 74.300781 -77.394531 Z M 57.824219 -77.394531"/></g><g id="h"><path d="M 42.789062 -40.355469 L 42.789062 -27.53125 L 66.007812 -27.53125 C 63.132812 -19.570312 54.398438 -14.261719 44.445312 -14.261719 C 30.515625 -14.261719 21.339844 -24.214844 21.339844 -38.585938 C 21.339844 -53.070312 30.738281 -63.023438 44.445312 -63.023438 C 54.175781 -63.023438 62.359375 -57.824219 65.675781 -49.53125 L 82.921875 -49.53125 C 79.273438 -66.890625 63.355469 -79.054688 44.117188 -79.054688 C 21.226562 -79.054688 4.3125 -61.695312 4.3125 -38.585938 C 4.3125 -15.367188 21.671875 1.769531 44.445312 1.769531 C 67.664062 1.769531 83.917969 -16.140625 83.917969 -40.355469 Z M 42.789062 -40.355469"/></g><g id="i"><path d="M 45.554688 1.769531 C 69.101562 1.769531 86.683594 -15.589844 86.683594 -38.699219 C 86.683594 -61.695312 69.101562 -79.054688 45.554688 -79.054688 C 21.890625 -79.054688 4.203125 -61.585938 4.203125 -38.699219 C 4.203125 -15.699219 21.890625 1.769531 45.554688 1.769531 Z M 45.554688 -14.042969 C 31.730469 -14.042969 21.226562 -24.765625 21.226562 -38.699219 C 21.226562 -52.628906 31.730469 -63.242188 45.554688 -63.242188 C 59.375 -63.242188 69.65625 -52.738281 69.65625 -38.699219 C 69.65625 -24.65625 59.375 -14.042969 45.554688 -14.042969 Z M 45.554688 -14.042969"/></g><g id="j"><path d="M 51.414062 0 L 70.097656 0 L 52.960938 -29.1875 C 61.585938 -33.390625 67.113281 -41.574219 67.113281 -51.746094 C 67.113281 -66.671875 55.503906 -77.394531 40.023438 -77.394531 L 8.84375 -77.394531 L 8.84375 0 L 25.539062 0 L 25.539062 -26.316406 L 36.265625 -26.316406 Z M 25.539062 -61.917969 L 38.917969 -61.917969 C 45.996094 -61.917969 50.085938 -57.605469 50.085938 -51.855469 C 50.085938 -45.996094 45.996094 -41.792969 38.917969 -41.792969 L 25.539062 -41.792969 Z M 25.539062 -61.917969"/></g><clipPath id="a"><path d="M 168.953125 445.171875 L 414.765625 445.171875 L 414.765625 691.171875 L 168.953125 691.171875 Z M 168.953125 445.171875"/></clipPath></defs><g clip-path="url(#a)"><path fill="#7ED957" d="M 291.964844 445.171875 L 414.953125 568.15625 L 414.953125 445.171875 Z M 291.964844 445.171875 L 291.964844 568.15625 L 168.964844 445.171875 Z M 291.964844 691.15625 L 168.976562 568.171875 L 291.964844 568.171875 Z M 414.953125 691.15625 L 291.964844 568.171875 L 414.953125 568.171875 Z M 414.953125 691.15625"/></g><g><use x="466.201" y="533.25" xmlns:xlink="http://www.w3.org/1999/xlink" xlink:href="#b" xlink:type="simple" xlink:actuate="onLoad" xlink:show="embed"/></g><g><use x="538.709" y="533.25" xmlns:xlink="http://www.w3.org/1999/xlink" xlink:href="#c" xlink:type="simple" xlink:actuate="onLoad" xlink:show="embed"/></g><g><use x="573.195" y="533.25" xmlns:xlink="http://www.w3.org/1999/xlink" xlink:href="#d" xlink:type="simple" xlink:actuate="onLoad" xlink:show="embed"/></g><g><use x="641.614" y="533.25" xmlns:xlink="http://www.w3.org/1999/xlink" xlink:href="#e" xlink:type="simple" xlink:actuate="onLoad" xlink:show="embed"/></g><g><use x="721.97" y="533.25" xmlns:xlink="http://www.w3.org/1999/xlink" xlink:href="#f" xlink:type="simple" xlink:actuate="onLoad" xlink:show="embed"/></g><g><use x="801.331" y="533.25" xmlns:xlink="http://www.w3.org/1999/xlink" xlink:href="#g" xlink:type="simple" xlink:actuate="onLoad" xlink:show="embed"/></g><g><use x="466.201" y="652.5" xmlns:xlink="http://www.w3.org/1999/xlink" xlink:href="#h" xlink:type="simple" xlink:actuate="onLoad" xlink:show="embed"/></g><g><use x="554.294" y="652.5" xmlns:xlink="http://www.w3.org/1999/xlink" xlink:href="#i" xlink:type="simple" xlink:actuate="onLoad" xlink:show="embed"/></g><g><use x="645.261" y="652.5" xmlns:xlink="http://www.w3.org/1999/xlink" xlink:href="#d" xlink:type="simple" xlink:actuate="onLoad" xlink:show="embed"/></g><g><use x="713.68" y="652.5" xmlns:xlink="http://www.w3.org/1999/xlink" xlink:href="#j" xlink:type="simple" xlink:actuate="onLoad" xlink:show="embed"/></g><g><use x="786.741" y="652.5" xmlns:xlink="http://www.w3.org/1999/xlink" xlink:href="#f" xlink:type="simple" xlink:actuate="onLoad" xlink:show="embed"/></g><g><use x="866.103" y="652.5" xmlns:xlink="http://www.w3.org/1999/xlink" xlink:href="#g" xlink:type="simple" xlink:actuate="onLoad" xlink:show="embed"/></g><g><use x="949.222" y="652.5" xmlns:xlink="http://www.w3.org/1999/xlink" xlink:href="#c" xlink:type="simple" xlink:actuate="onLoad" xlink:show="embed"/></g></svg>